<svg xmlns="http://www.w3.org/2000/svg" version="1.1" viewBox="128.86 403 719.48 173.31">
<path d="M0 0 C13.16550644 11.18960661 17.93699245 26.14805046 19.67578125 42.71484375 C20.29456407 58.0297185 15.316683 73.23139836 5.58203125 85.03515625 C-3.67819334 94.65291846 -15.4734114 98.56499092 -28.55078125 99.23828125 C-43.96509631 99.52773475 -58.10079455 97.26236026 -69.85546875 86.41015625 C-82.09492631 73.14238361 -85.51668008 57.20797994 -84.921875 39.7109375 C-84.08053678 24.6482694 -77.83149917 11.19290313 -66.60546875 1.03515625 C-48.16186947 -12.68154573 -18.91691188 -13.35811918 0 0 Z M-33.60546875 14.03515625 C-33.82460938 14.86917969 -34.04375 15.70320313 -34.26953125 16.5625 C-36.98273138 26.19105167 -40.05887162 34.85658418 -49.171875 39.97265625 C-54.15370339 42.14770813 -59.36934181 43.606396 -64.60546875 45.03515625 C-64.60546875 45.69515625 -64.60546875 46.35515625 -64.60546875 47.03515625 C-63.4453125 47.27298828 -63.4453125 47.27298828 -62.26171875 47.515625 C-55.5419576 49.02091803 -49.9933265 50.66433232 -44.60546875 55.03515625 C-44.06277344 55.46957031 -43.52007813 55.90398437 -42.9609375 56.3515625 C-37.13599591 61.99954384 -35.66276158 70.45230259 -33.60546875 78.03515625 C-32.94546875 78.03515625 -32.28546875 78.03515625 -31.60546875 78.03515625 C-31.25935547 76.6584375 -31.25935547 76.6584375 -30.90625 75.25390625 C-26.374449 58.20143766 -26.374449 58.20143766 -18.04296875 52.72265625 C-12.52285146 49.66702571 -6.7628454 48.24124034 -0.60546875 47.03515625 C-0.60546875 46.37515625 -0.60546875 45.71515625 -0.60546875 45.03515625 C-1.61867188 44.720625 -2.631875 44.40609375 -3.67578125 44.08203125 C-5.0275011 43.65023185 -6.37905489 43.21791237 -7.73046875 42.78515625 C-8.72820312 42.47771484 -8.72820312 42.47771484 -9.74609375 42.1640625 C-17.71400574 39.58620862 -23.58425779 35.46761921 -27.60546875 28.03515625 C-29.21300407 23.4209345 -30.47022162 18.78983835 -31.60546875 14.03515625 C-32.26546875 14.03515625 -32.92546875 14.03515625 -33.60546875 14.03515625 Z " fill="#7F77DD" transform="translate(828.60546875,476.96484375)"/>
<path d="M0 0 C9.37208813 7.51535369 14.56335503 18.87536892 16.8828125 30.47265625 C16.8828125 38.39265625 16.8828125 46.31265625 16.8828125 54.47265625 C-4.8971875 54.47265625 -26.6771875 54.47265625 -49.1171875 54.47265625 C-46.65126766 63.02528378 -46.65126766 63.02528378 -41.1171875 68.47265625 C-35.08835257 71.41697098 -28.09373287 71.48355845 -21.8046875 69.34765625 C-18.90318137 67.60587581 -18.90318137 67.60587581 -17.3359375 64.38671875 C-15.33844829 61.93679247 -14.29186075 61.50298592 -11.12231445 60.95263672 C-7.37517255 60.8087638 -3.67755542 60.85230324 0.0703125 60.97265625 C1.36646484 60.98296875 2.66261719 60.99328125 3.99804688 61.00390625 C13.57407976 61.16392351 13.57407976 61.16392351 15.8828125 63.47265625 C15.8828125 72.82170926 10.84968136 79.64942034 4.6328125 86.28515625 C-6.12037241 96.44691599 -20.04040919 99.10981506 -34.484375 98.75390625 C-47.24599034 97.76591022 -59.75837593 92.84462088 -69.08203125 83.91015625 C-79.4750447 71.46247795 -82.42868216 54.26600741 -81.1171875 38.47265625 C-79.51196125 24.14131196 -75.11865914 10.24525804 -63.828125 0.49609375 C-44.8545839 -12.89326134 -19.06480779 -13.75339455 0 0 Z M-44.9296875 23.34765625 C-47.47985436 26.5454574 -47.47985436 26.5454574 -48.1171875 31.47265625 C-37.2271875 31.47265625 -26.3371875 31.47265625 -15.1171875 31.47265625 C-15.98504595 25.30800935 -15.98504595 25.30800935 -19.9921875 21.66015625 C-20.69085938 21.07621094 -21.38953125 20.49226563 -22.109375 19.890625 C-29.48171622 14.6840883 -39.17386921 16.98509928 -44.9296875 23.34765625 Z " fill="#7F77DD" transform="translate(387.1171875,477.52734375)"/>
<path d="M0 0 C5.5616308 4.68232158 8.57459873 10.72806178 9.29548645 17.96731567 C9.42538516 21.49877212 9.4672905 25.0208484 9.4765625 28.5546875 C9.50037264 30.53647007 9.52418668 32.51825259 9.5482235 34.50003242 C9.57806564 37.26002993 9.59459143 40.02004779 9.61126709 42.78015137 C9.64287504 47.6016988 9.69440268 52.42306548 9.74765015 57.24441528 C9.77458897 59.80431802 9.79606179 62.3642861 9.81118774 64.92428589 C9.85708445 70.17790424 9.93740981 75.43177379 10.26318359 80.67626953 C10.3299379 81.82918991 10.3299379 81.82918991 10.39804077 83.00540161 C11.21175144 85.70164068 12.7606448 86.39054661 15 88 C15.375 91.0625 15.375 91.0625 15 94 C13 96 13 96 9.92724609 96.22705078 C8.63898926 96.21657715 7.35073242 96.20610352 6.0234375 96.1953125 C5.33819 96.1924826 4.6529425 96.18965271 3.94692993 96.18673706 C1.75610973 96.17553281 -0.43430316 96.15042859 -2.625 96.125 C-4.1093691 96.11497048 -5.5937446 96.10584458 -7.078125 96.09765625 C-10.71888261 96.07559294 -14.35940156 96.04106176 -18 96 C-18.495 92.535 -18.495 92.535 -19 89 C-19.9178125 89.55429687 -20.835625 90.10859375 -21.78125 90.6796875 C-33.30121095 97.53287753 -42.98381679 100.86741567 -56.7421875 98.53515625 C-65.86119829 96.13466899 -72.93828389 91.4742923 -77.84765625 83.35546875 C-81.9242352 75.02266499 -82.06361056 65.22377751 -79.80859375 56.328125 C-76.80171662 47.67064302 -72.09565347 42.19463911 -64 38 C-53.60705936 33.07702812 -41.08250879 32.01915384 -29.76953125 30.625 C-26.70485232 29.93339404 -24.59336002 28.74471021 -22 27 C-22.10169161 24.05272465 -22.10169161 24.05272465 -23 21 C-26.65345895 19.02568915 -29.89012958 18.70322654 -34 18.6875 C-35.010625 18.67074219 -36.02125 18.65398437 -37.0625 18.63671875 C-40.65363766 19.08083551 -42.27081751 19.58891479 -45 22 C-46.29869289 24.92822779 -47.20100894 27.9014737 -48 31 C-51.95096978 31.04939662 -55.9018203 31.08571755 -59.85302734 31.10986328 C-61.8591136 31.12488107 -63.86511324 31.15028981 -65.87109375 31.17578125 C-67.12792969 31.18222656 -68.38476562 31.18867188 -69.6796875 31.1953125 C-70.84226074 31.20578613 -72.00483398 31.21625977 -73.20263672 31.22705078 C-76 31 -76 31 -78 29 C-77.77728986 19.25315608 -75.56270948 10.10314692 -68.98828125 2.75 C-51.09720804 -14.23559132 -19.87459434 -12.71257836 0 0 Z M-32.25 53.3125 C-33.20519531 53.52583984 -34.16039062 53.73917969 -35.14453125 53.95898438 C-43.20120857 55.65806631 -43.20120857 55.65806631 -49.3125 60.8125 C-50.45708739 64.45436898 -50.45754596 67.62736213 -49.25 71.25 C-47.62269404 73.52822835 -46.6891965 74.15078005 -44 75 C-37.46048702 75.66503522 -32.63948158 74.40371078 -27 71 C-22.83193472 67.04568166 -21.18461655 62.5077145 -20.8828125 56.7734375 C-20.87601086 54.84857395 -20.93250204 52.92369175 -21 51 C-24.69561838 51 -28.6675815 52.48231138 -32.25 53.3125 Z " fill="#7F77DD" transform="translate(494,477)"/>
<path d="M0 0 C7.00983229 6.11854777 11.68646004 15.74953648 12.44140625 25.0546875 C12.46020155 27.03195351 12.36900417 29.0093304 12.2734375 30.984375 C10.2734375 32.984375 10.2734375 32.984375 7.38427734 33.21142578 C6.17980957 33.20095215 4.9753418 33.19047852 3.734375 33.1796875 C1.78144531 33.17001953 1.78144531 33.17001953 -0.2109375 33.16015625 C-1.59114845 33.14344429 -2.97135679 33.12651439 -4.3515625 33.109375 C-5.73957702 33.09934506 -7.12759839 33.09021923 -8.515625 33.08203125 C-11.91944276 33.05839363 -15.32291756 33.02544367 -18.7265625 32.984375 C-19.01551392 32.05334961 -19.01551392 32.05334961 -19.31030273 31.10351562 C-19.57012939 30.29076172 -19.82995605 29.47800781 -20.09765625 28.640625 C-20.35216553 27.83431641 -20.6066748 27.02800781 -20.86889648 26.19726562 C-22.2513026 22.63047684 -24.35907232 20.66812009 -27.7265625 18.984375 C-33.34357212 18.400206 -38.01821993 18.58998849 -42.7265625 21.984375 C-49.37843411 30.85353715 -49.75112122 43.01814315 -48.37890625 53.6875 C-47.36204117 59.39561656 -46.17573022 64.76481675 -41.7265625 68.796875 C-36.75500009 71.74874018 -31.495086 71.42482192 -25.9765625 70.546875 C-21.04245701 67.12041286 -19.80354827 60.60817978 -18.7265625 54.984375 C-14.63317598 54.93498385 -10.53990452 54.89865999 -6.44628906 54.87451172 C-5.05335469 54.86444623 -3.66044148 54.85079266 -2.26757812 54.83349609 C-0.2670189 54.8092728 1.73369365 54.79896686 3.734375 54.7890625 C5.54107666 54.77335205 5.54107666 54.77335205 7.38427734 54.75732422 C10.2734375 54.984375 10.2734375 54.984375 12.2734375 56.984375 C13.11217178 66.73466105 8.87543624 75.11067823 3.2265625 82.75390625 C-4.63908024 92.05600502 -13.63023447 97.28266414 -25.7265625 98.984375 C-41.07608088 100.10183235 -54.17628841 97.9452309 -66.65234375 88.53125 C-76.80829099 79.61383291 -80.88139191 64.99175651 -81.7265625 51.984375 C-82.48809958 35.76132758 -80.49753925 18.72945702 -69.58984375 5.9765625 C-68.97496094 5.31914062 -68.36007813 4.66171875 -67.7265625 3.984375 C-67.14261719 3.34757812 -66.55867187 2.71078125 -65.95703125 2.0546875 C-49.56718696 -14.02461237 -18.03916177 -12.67616773 0 0 Z " fill="#7F77DD" transform="translate(210.7265625,477.015625)"/>
<path d="M0 0 C2.48340903 -0.26727014 4.71472068 -0.34866334 7.1953125 -0.29296875 C8.25647781 -0.28660149 8.25647781 -0.28660149 9.33908081 -0.28010559 C11.60143905 -0.26329547 13.86291048 -0.22564128 16.125 -0.1875 C17.65753923 -0.17245607 19.1900924 -0.15876716 20.72265625 -0.14648438 C24.48211318 -0.11338462 28.24090618 -0.06158825 32 0 C33.61833143 5.65159833 35.23571291 11.30346743 36.85229492 16.95556641 C37.39989904 18.86969971 37.94774216 20.78376467 38.49584961 22.69775391 C42.05209897 35.11691988 45.56393264 47.54702218 49 60 C51.60577167 53.38615385 53.62535276 46.67703886 55.57421875 39.84375 C55.90291458 38.70087524 56.23161041 37.55800049 56.57026672 36.38049316 C57.61236604 32.75452159 58.64999712 29.12728912 59.6875 25.5 C60.396189 23.03116519 61.10517028 20.56241426 61.81445312 18.09375 C63.54635284 12.06346673 65.27459251 6.03214385 67 0 C71.23582327 -0.04938628 75.47149465 -0.08571263 79.70751953 -0.10986328 C81.14895547 -0.11992963 82.59037095 -0.1335838 84.03173828 -0.15087891 C86.10193934 -0.17510012 88.17187076 -0.18647641 90.2421875 -0.1953125 C92.11173096 -0.21102295 92.11173096 -0.21102295 94.01904297 -0.22705078 C97 0 97 0 99 2 C98.74280475 9.02932835 96.38187906 15.20929053 93.984375 21.765625 C93.57655289 22.90134445 93.16873077 24.0370639 92.74855042 25.2071991 C91.65003888 28.26144335 90.54433216 31.31295425 89.43503189 34.36329269 C88.28976891 37.5175634 87.15349858 40.67506971 86.01635742 43.83227539 C84.20171592 48.86729898 82.38171521 53.90034626 80.55810547 58.93212891 C78.29731304 65.17258946 76.05297105 71.41879133 73.81640625 77.66796875 C72.92496857 80.15463228 72.03312213 82.64114858 71.14099121 85.12756348 C70.59019793 86.66324364 70.03998301 88.19913137 69.49035645 89.73522949 C68.74247358 91.82320809 67.99096855 93.90984319 67.23828125 95.99609375 C66.82618408 97.14263428 66.41408691 98.2891748 65.98950195 99.47045898 C65 102 65 102 64 103 C61.70848583 103.08790975 59.41427476 103.10694038 57.12109375 103.09765625 C56.09110008 103.09553383 56.09110008 103.09553383 55.04029846 103.09336853 C52.83932199 103.08775479 50.63844591 103.07520007 48.4375 103.0625 C46.94856917 103.05748676 45.45963676 103.05292355 43.97070312 103.04882812 C40.31376925 103.03778093 36.65689442 103.02050713 33 103 C32.79527573 102.41674957 32.59055145 101.83349915 32.37962341 101.23257446 C29.73397159 93.69611072 27.08617829 86.16040059 24.4375 78.625 C24.01148499 77.41281799 23.58546997 76.20063599 23.14654541 74.95172119 C16.64649452 56.46173014 10.09524938 37.99080983 3.45874023 19.54931641 C3.16222061 18.72316833 2.86570099 17.89702026 2.56019592 17.0458374 C2.01344099 15.52250353 1.46517004 13.9997125 0.9150238 12.4776001 C0.26219149 10.65686433 -0.37021438 8.82883538 -1 7 C-1.26216309 6.24348145 -1.52432617 5.48696289 -1.79443359 4.70751953 C-2 3 -2 3 0 0 Z " fill="#7F77DD" transform="translate(637,470)"/>
<path d="M0 0 C1.20269531 -0.00257813 2.40539062 -0.00515625 3.64453125 -0.0078125 C4.90652344 -0.00007813 6.16851563 0.00765625 7.46875 0.015625 C8.73074219 0.00789063 9.99273438 0.00015625 11.29296875 -0.0078125 C13.09701172 -0.00394531 13.09701172 -0.00394531 14.9375 0 C16.04544922 0.00225586 17.15339844 0.00451172 18.29492188 0.00683594 C20.96875 0.265625 20.96875 0.265625 22.96875 2.265625 C23.19580078 4.78759766 23.19580078 4.78759766 23.1640625 7.9296875 C23.15761719 9.05117188 23.15117188 10.17265625 23.14453125 11.328125 C23.12777344 12.50375 23.11101563 13.679375 23.09375 14.890625 C23.08472656 16.07398438 23.07570313 17.25734375 23.06640625 18.4765625 C23.04277812 21.40645023 23.00983514 24.3359384 22.96875 27.265625 C23.88398437 27.24242187 24.79921875 27.21921875 25.7421875 27.1953125 C26.93070313 27.17726563 28.11921875 27.15921875 29.34375 27.140625 C31.11878906 27.10582031 31.11878906 27.10582031 32.9296875 27.0703125 C35.96875 27.265625 35.96875 27.265625 37.96875 29.265625 C38.22753906 31.296875 38.22753906 31.296875 38.234375 33.765625 C38.23824219 35.0959375 38.23824219 35.0959375 38.2421875 36.453125 C38.23445312 37.38125 38.22671875 38.309375 38.21875 39.265625 C38.23035156 40.6578125 38.23035156 40.6578125 38.2421875 42.078125 C38.23960937 42.965 38.23703125 43.851875 38.234375 44.765625 C38.23211914 45.5803125 38.22986328 46.395 38.22753906 47.234375 C37.96875 49.265625 37.96875 49.265625 35.96875 51.265625 C31.67875 51.265625 27.38875 51.265625 22.96875 51.265625 C23.29875 68.425625 23.62875 85.585625 23.96875 103.265625 C27.92875 103.595625 31.88875 103.925625 35.96875 104.265625 C38.45932251 106.75619751 38.2253313 107.55035159 38.234375 110.984375 C38.23824219 112.38236328 38.23824219 112.38236328 38.2421875 113.80859375 C38.23445312 114.78441406 38.22671875 115.76023437 38.21875 116.765625 C38.23035156 118.22935547 38.23035156 118.22935547 38.2421875 119.72265625 C38.23960937 120.65464844 38.23703125 121.58664062 38.234375 122.546875 C38.23211914 123.40345703 38.22986328 124.26003906 38.22753906 125.14257812 C37.96875 127.265625 37.96875 127.265625 35.96875 129.265625 C32.15585029 129.72666457 28.30624679 129.58954612 24.46875 129.578125 C22.8909375 129.60229492 22.8909375 129.60229492 21.28125 129.62695312 C12.31194421 129.63250344 3.14323874 128.72715583 -3.51300049 122.10406494 C-9.22713514 115.18485088 -8.42751438 105.70727062 -8.32421875 97.26171875 C-8.31997391 95.94269058 -8.31572906 94.62366241 -8.31135559 93.2646637 C-8.29999678 89.78757115 -8.27060931 86.31086504 -8.23724365 82.83392334 C-8.2063472 79.274101 -8.19280879 75.71421515 -8.17773438 72.15429688 C-8.145729 65.19124926 -8.09464386 58.22845578 -8.03125 51.265625 C-9.18753906 51.30042969 -9.18753906 51.30042969 -10.3671875 51.3359375 C-11.37007812 51.35398437 -12.37296875 51.37203125 -13.40625 51.390625 C-14.40398438 51.41382813 -15.40171875 51.43703125 -16.4296875 51.4609375 C-19.03125 51.265625 -19.03125 51.265625 -21.03125 49.265625 C-21.29003906 47.234375 -21.29003906 47.234375 -21.296875 44.765625 C-21.29945313 43.87875 -21.30203125 42.991875 -21.3046875 42.078125 C-21.29308594 40.6859375 -21.29308594 40.6859375 -21.28125 39.265625 C-21.28898438 38.3375 -21.29671875 37.409375 -21.3046875 36.453125 C-21.30210937 35.56625 -21.29953125 34.679375 -21.296875 33.765625 C-21.29461914 32.9509375 -21.29236328 32.13625 -21.29003906 31.296875 C-21.03125 29.265625 -21.03125 29.265625 -19.03125 27.265625 C-16.4296875 27.0703125 -16.4296875 27.0703125 -13.40625 27.140625 C-11.90191406 27.16769531 -11.90191406 27.16769531 -10.3671875 27.1953125 C-9.59632813 27.21851563 -8.82546875 27.24171875 -8.03125 27.265625 C-8.04172363 26.51877441 -8.05219727 25.77192383 -8.06298828 25.00244141 C-8.1044577 21.63186992 -8.13054729 18.261352 -8.15625 14.890625 C-8.17300781 13.715 -8.18976562 12.539375 -8.20703125 11.328125 C-8.21347656 10.20664062 -8.21992187 9.08515625 -8.2265625 7.9296875 C-8.23703613 6.89279785 -8.24750977 5.8559082 -8.25830078 4.78759766 C-7.78215712 -0.50118089 -4.47178157 0.00910485 0 0 Z " fill="#7F77DD" transform="translate(536.03125,444.734375)"/>
<path d="M0 0 C2.72234602 2.72234602 2.25788057 4.22762873 2.265625 8.03125 C2.26949219 9.83529297 2.26949219 9.83529297 2.2734375 11.67578125 C2.26570313 12.93777344 2.25796875 14.19976562 2.25 15.5 C2.26160156 17.39298828 2.26160156 17.39298828 2.2734375 19.32421875 C2.27085937 20.52691406 2.26828125 21.72960937 2.265625 22.96875 C2.26336914 24.07669922 2.26111328 25.18464844 2.25878906 26.32617188 C2 29 2 29 0 31 C-2.22229641 31.22770612 -4.4549406 31.35920621 -6.6875 31.4375 C-13.49288757 31.84150458 -17.87475493 32.5504836 -23.3125 36.8125 C-26.61656983 41.09555349 -27.24893759 45.68072476 -27.28710938 50.97363281 C-27.30723083 52.70507538 -27.30723083 52.70507538 -27.32775879 54.47149658 C-27.33303589 55.70293396 -27.33831299 56.93437134 -27.34375 58.203125 C-27.3583728 59.47726257 -27.37299561 60.75140015 -27.38806152 62.06414795 C-27.44240926 66.81797187 -27.47976202 71.57181493 -27.51568604 76.32580566 C-27.5518359 80.99339931 -27.60252225 85.66069363 -27.65625 90.328125 C-27.6615271 91.5676593 -27.6668042 92.8071936 -27.67224121 94.08428955 C-27.69236267 95.79681915 -27.69236267 95.79681915 -27.71289062 97.54394531 C-27.72018188 98.55177063 -27.72747314 99.55959595 -27.73498535 100.59796143 C-28 103 -28 103 -30 105 C-32.765625 105.25878906 -32.765625 105.25878906 -36.25 105.265625 C-38.12171875 105.26949219 -38.12171875 105.26949219 -40.03125 105.2734375 C-41.99578125 105.26183594 -41.99578125 105.26183594 -44 105.25 C-45.3096875 105.25773438 -46.619375 105.26546875 -47.96875 105.2734375 C-49.2165625 105.27085937 -50.464375 105.26828125 -51.75 105.265625 C-53.47476563 105.26224121 -53.47476563 105.26224121 -55.234375 105.25878906 C-58 105 -58 105 -60 103 C-60.19904271 99.87645011 -60.27260863 96.84151456 -60.25878906 93.71679688 C-60.2622937 92.75411392 -60.26579834 91.79143097 -60.26940918 90.79957581 C-60.27823778 87.60589463 -60.27237333 84.41243357 -60.265625 81.21875 C-60.26697132 79.00679481 -60.26891158 76.79483991 -60.27142334 74.58288574 C-60.27437613 69.94243559 -60.27007195 65.30206232 -60.26074219 60.66162109 C-60.24934761 54.70256175 -60.25590625 48.74368255 -60.26788712 42.78462982 C-60.27510151 38.21570469 -60.27281972 33.64682252 -60.26763153 29.07789612 C-60.26629387 26.88017251 -60.2679468 24.68244506 -60.27259064 22.48472595 C-60.27764894 19.417446 -60.26995539 16.35046101 -60.25878906 13.28320312 C-60.26283752 12.36781265 -60.26688599 11.45242218 -60.27105713 10.5092926 C-60.22852742 4.22852742 -60.22852742 4.22852742 -58 2 C-55.41796875 1.74121094 -55.41796875 1.74121094 -52.1875 1.734375 C-51.02992188 1.73179687 -49.87234375 1.72921875 -48.6796875 1.7265625 C-47.46539062 1.73429687 -46.25109375 1.74203125 -45 1.75 C-43.78570312 1.74226563 -42.57140625 1.73453125 -41.3203125 1.7265625 C-39.58394531 1.73042969 -39.58394531 1.73042969 -37.8125 1.734375 C-36.74644531 1.73663086 -35.68039062 1.73888672 -34.58203125 1.74121094 C-32 2 -32 2 -30 4 C-29.60235737 5.98821313 -29.26224651 7.98944339 -29 10 C-27.6078125 8.63875 -27.6078125 8.63875 -26.1875 7.25 C-18.8656314 1.03304115 -9.50320561 -1.44140332 0 0 Z " fill="#7F77DD" transform="translate(299,468)"/>
<path d="M0 0 C1.20269531 -0.00257813 2.40539062 -0.00515625 3.64453125 -0.0078125 C4.90652344 -0.00007813 6.16851563 0.00765625 7.46875 0.015625 C8.73074219 0.00789063 9.99273438 0.00015625 11.29296875 -0.0078125 C12.49566406 -0.00523437 13.69835937 -0.00265625 14.9375 0 C16.04544922 0.00225586 17.15339844 0.00451172 18.29492188 0.00683594 C20.96875 0.265625 20.96875 0.265625 22.96875 2.265625 C23.16779271 5.38917489 23.24135863 8.42411044 23.22753906 11.54882812 C23.2310437 12.51151108 23.23454834 13.47419403 23.23815918 14.46604919 C23.24698778 17.65973037 23.24112333 20.85319143 23.234375 24.046875 C23.23572132 26.25883019 23.23766158 28.47078509 23.24017334 30.68273926 C23.24312613 35.32318941 23.23882195 39.96356268 23.22949219 44.60400391 C23.21809761 50.56306325 23.22465625 56.52194245 23.23663712 62.48099518 C23.24385151 67.04992031 23.24156972 71.61880248 23.23638153 76.18772888 C23.23504387 78.38545249 23.2366968 80.58317994 23.24134064 82.78089905 C23.24639894 85.848179 23.23870539 88.91516399 23.22753906 91.98242188 C23.23158752 92.89781235 23.23563599 93.81320282 23.23980713 94.7563324 C23.19727742 101.03709758 23.19727742 101.03709758 20.96875 103.265625 C18.29492188 103.52441406 18.29492188 103.52441406 14.9375 103.53125 C13.73480469 103.53382813 12.53210938 103.53640625 11.29296875 103.5390625 C10.03097656 103.53132812 8.76898437 103.52359375 7.46875 103.515625 C6.20675781 103.52335938 4.94476562 103.53109375 3.64453125 103.5390625 C2.44183594 103.53648437 1.23914063 103.53390625 0 103.53125 C-1.10794922 103.52899414 -2.21589844 103.52673828 -3.35742188 103.52441406 C-6.03125 103.265625 -6.03125 103.265625 -8.03125 101.265625 C-8.23029271 98.14207511 -8.30385863 95.10713956 -8.29003906 91.98242188 C-8.2935437 91.01973892 -8.29704834 90.05705597 -8.30065918 89.06520081 C-8.30948778 85.87151963 -8.30362333 82.67805857 -8.296875 79.484375 C-8.29822132 77.27241981 -8.30016158 75.06046491 -8.30267334 72.84851074 C-8.30562613 68.20806059 -8.30132195 63.56768732 -8.29199219 58.92724609 C-8.28059761 52.96818675 -8.28715625 47.00930755 -8.29913712 41.05025482 C-8.30635151 36.48132969 -8.30406972 31.91244752 -8.29888153 27.34352112 C-8.29754387 25.14579751 -8.2991968 22.94807006 -8.30384064 20.75035095 C-8.30889894 17.683071 -8.30120539 14.61608601 -8.29003906 11.54882812 C-8.29408752 10.63343765 -8.29813599 9.71804718 -8.30230713 8.7749176 C-8.25242177 1.40787428 -7.3200435 0.0149041 0 0 Z " fill="#7F77DD" transform="translate(598.03125,469.734375)"/>
<path d="M0 0 C0.66 0 1.32 0 2 0 C2.27972656 1.0621875 2.55945313 2.124375 2.84765625 3.21875 C5.35130787 12.23957314 7.60231726 20.17568685 16.09765625 25.25390625 C21.47566436 27.82434752 27.26626818 29.41993194 33 31 C33 31.66 33 32.32 33 33 C32.24976563 33.14695312 31.49953125 33.29390625 30.7265625 33.4453125 C21.28892277 35.51351063 13.04976457 38.22557537 7.5625 46.625 C4.60514177 52.12082719 3.19344074 57.90717096 2 64 C1.34 64 0.68 64 0 64 C-0.27972656 62.9378125 -0.55945313 61.875625 -0.84765625 60.78125 C-3.44408725 51.4232569 -5.81052219 43.97235143 -14.35546875 38.48828125 C-19.74183451 35.57379807 -24.99090812 34.0661292 -31 33 C-31 32.34 -31 31.68 -31 31 C-30.01 30.70867187 -29.02 30.41734375 -28 30.1171875 C-18.60388296 27.24767189 -10.54103577 24.61992981 -5.1875 15.8125 C-2.64631742 10.7816453 -1.25825473 5.4728966 0 0 Z " fill="#7F77DD" transform="translate(604,403)"/>
</svg>