<?xml version="1.0" standalone="no"?> <!DOCTYPE svg PUBLIC "-//W3C//DTD SVG 20010904//EN" "http://www.w3.org/TR/2001/REC-SVG-20010904/DTD/svg10.dtd"> <svg version="1.0" xmlns="http://www.w3.org/2000/svg" width="512.000000pt" height="512.000000pt" viewBox="0 0 512.000000 512.000000" preserveAspectRatio="xMidYMid meet"> <g transform="translate(0.000000,512.000000) scale(0.100000,-0.100000)" fill="#a99bc7" stroke="none"> <path d="M661 5105 c-149 -33 -254 -83 -363 -175 -117 -97 -209 -237 -255 -385 l-28 -90 0 -1895 0 -1895 28 -90 c80 -259 283 -462 542 -542 l90 -28 1100 -3 c754 -2 1120 1 1165 8 307 51 556 268 647 565 27 90 27 91 28 390 0 299 0 300 -24 338 -13 21 -42 50 -64 65 -34 22 -52 27 -106 27 -79 0 -128 -26 -169 -89 l-27 -41 -6 -275 c-5 -255 -7 -279 -28 -333 -43 -110 -132 -195 -245 -234 -48 -17 -118 -18 -1136 -18 l-1085 0 -58 23 c-111 45 -195 133 -234 246 -17 48 -18 146 -18 1886 0 1740 1 1838 18 1886 39 113 123 201 234 246 l58 23 1085 0 c1018 0 1088 -1 1136 -18 113 -39 202 -124 245 -234 21 -54 23 -78 28 -333 l6 -275 27 -41 c41 -63 90 -89 168 -89 78 0 127 26 168 88 l27 41 0 300 c-1 300 -1 301 -28 391 -91 295 -335 510 -641 564 -40 7 -426 11 -1140 10 -882 0 -1093 -3 -1145 -14z"/> <path d="M4315 3391 c-75 -35 -115 -96 -117 -176 -1 -80 14 -102 197 -285 l175 -175 -1232 -5 -1233 -5 -41 -27 c-61 -40 -89 -90 -89 -163 0 -77 27 -130 86 -170 l44 -30 1233 -5 1232 -5 -175 -175 c-182 -182 -198 -205 -197 -282 1 -57 18 -100 55 -136 63 -61 147 -78 222 -43 26 12 132 112 306 287 247 250 268 274 300 344 33 74 34 77 34 210 0 133 -1 136 -34 210 -32 70 -53 94 -300 344 -174 175 -280 275 -306 287 -51 24 -109 24 -160 0z"/> </g> </svg>