<?xml version="1.0" standalone="no"?> <!DOCTYPE svg PUBLIC "-//W3C//DTD SVG 20010904//EN" "http://www.w3.org/TR/2001/REC-SVG-20010904/DTD/svg10.dtd"> <svg version="1.0" xmlns="http://www.w3.org/2000/svg" width="512.000000pt" height="512.000000pt" viewBox="0 0 512.000000 512.000000" preserveAspectRatio="xMidYMid meet"> <g transform="translate(0.000000,512.000000) scale(0.100000,-0.100000)" fill="#a99bc7" stroke="none"> <path d="M1780 5105 c-611 -77 -1156 -431 -1484 -963 -224 -362 -328 -818 -286 -1243 79 -778 594 -1440 1330 -1710 220 -80 440 -119 685 -119 431 0 829 127 1175 376 49 35 93 64 97 64 4 0 339 -331 743 -734 565 -566 745 -740 780 -755 59 -27 114 -26 176 3 77 36 124 111 124 195 -1 85 -7 92 -775 861 -404 404 -735 738 -735 742 0 4 29 48 65 99 203 286 322 596 366 952 15 126 7 431 -15 552 -79 430 -266 793 -564 1092 -310 311 -686 505 -1122 578 -136 23 -418 28 -560 10z m565 -445 c289 -62 548 -194 755 -384 339 -311 520 -720 522 -1176 0 -159 -11 -255 -47 -400 -141 -563 -592 -1014 -1155 -1155 -145 -36 -241 -47 -400 -47 -209 1 -391 34 -572 105 -805 317 -1212 1204 -928 2022 187 540 665 941 1245 1046 142 26 437 20 580 -11z"/> </g> </svg>