<?xml version="1.0" standalone="no"?> <!DOCTYPE svg PUBLIC "-//W3C//DTD SVG 20010904//EN" "http://www.w3.org/TR/2001/REC-SVG-20010904/DTD/svg10.dtd"> <svg version="1.0" xmlns="http://www.w3.org/2000/svg" width="512.000000pt" height="512.000000pt" viewBox="0 0 512.000000 512.000000" preserveAspectRatio="xMidYMid meet"> <g transform="translate(0.000000,512.000000) scale(0.100000,-0.100000)" fill="#ffffff" stroke="none"> <path d="M4425 4693 c-42 -9 -3842 -1277 -3875 -1293 -124 -63 -158 -223 -69 -324 16 -19 80 -65 142 -104 61 -38 251 -156 422 -262 964 -598 1015 -632 1044 -674 15 -23 232 -369 481 -771 250 -401 464 -744 478 -762 72 -96 243 -95 318 2 17 23 224 629 675 1982 588 1764 649 1954 649 2012 0 98 -22 125 -140 174 -40 17 -96 25 -125 20z m-780 -744 c-22 -23 -49 -52 -60 -64 -63 -70 -1390 -1393 -1394 -1391 -39 19 -1041 640 -1041 645 0 4 2501 845 2530 850 2 1 -14 -18 -35 -40z m-78 -1539 c-232 -693 -425 -1260 -428 -1260 -4 0 -152 233 -329 518 l-322 517 746 743 c410 408 748 742 750 742 3 0 -185 -567 -417 -1260z"/> </g> </svg>